<svg xmlns="http://www.w3.org/2000/svg" viewBox="0 0 350 350" xml:space="preserve"><path fill="#2AA9E1" d="M314.103 144.513 178.582 91.369a5.826 5.826 0 0 0-4.213-.013L35.937 144.497a5.827 5.827 0 0 0-3.736 5.419 5.819 5.819 0 0 0 3.698 5.44l13.179 5.168v20.795c-3.873 2.084-6.535 6.13-6.535 10.836 0 3.415 1.384 6.507 3.622 8.741v31.229a8.736 8.736 0 0 0 8.735 8.737 8.733 8.733 0 0 0 8.735-8.737v-31.229a12.3 12.3 0 0 0 3.627-8.741c0-4.706-2.664-8.752-6.537-10.836V165.09l33.672 13.202c0 .078-.021.148-.021.224.06 44.397 36.227 80.515 80.625 80.515 44.456 0 80.628-36.167 80.628-80.624v-.449c0-.052-.015-.097-.015-.147l58.449-22.439a5.823 5.823 0 0 0 3.736-5.418 5.819 5.819 0 0 0-3.696-5.441zM175 247.384c-36.497 0-66.476-28.534-68.815-64.466l65.235 25.58a5.823 5.823 0 0 0 4.211.014l68.228-26.191c-2.035 36.218-32.136 65.063-68.859 65.063zm-1.434-50.555-116.395-45.64s-.002 0-.002-.002l-3.047-1.192 122.313-46.953 119.442 46.834-122.311 46.953z"/></svg>